 
 <!-- email SVG  https://svgsprit.es/-->
    <svg xmlns="http://www.w3.org/2000/svg" xmlns:xlink="http://www.w3.org/1999/xlink" versión="1.1">

      <symbol id="email" width="16" height="12" viewBox="0 0 16 12">
        <path fill="#2196F3"
          d="M14.5 0h-13C.7 0 0 .7 0 1.5v9c0 .8.7 1.5 1.5 1.5h13c.8 0 1.5-.7 1.5-1.5v-9c0-.8-.7-1.5-1.5-1.5Zm0 1h.2L8 6.8 1.3 1h13.2Zm0 10h-13a.5.5 0 0 1-.5-.5V2.1l6.7 5.8a.5.5 0 0 0 .6 0L15 2v8.4c0 .3-.2.5-.5.5Z" />
      </symbol>

 <!-- cellphon  SVG -->

     
      <symbol id="cellphon" width="10" height="16" viewBox="0 0 10 16">
        <path
          d="M8.5 0H1.5C0.672848 0 0 0.672848 0 1.5V14.5C0 15.3272 0.672848 16 1.5 16H8.5C9.32715 16 10 15.3272 10 14.5V1.5C10 0.672848 9.32715 0 8.5 0ZM1.5 1H8.5C8.77588 1 9 1.22412 9 1.5V12H1V1.5C1 1.22412 1.22412 1 1.5 1ZM8.5 15H1.5C1.22412 15 1 14.7759 1 14.5V13H9V14.5C9 14.7759 8.77588 15 8.5 15Z"
          fill="#757575" />
      </symbol>

       <!-- img1-antena-svg-sec-two  SVG -->

      <symbol xmlns="http://www.w3.org/2000/svg" fill="none" viewBox="0 0 70 70" id="antena">
        <path fill="#212121" d="m67.316 48.339-18.47-18.605 2.05-10.097a4.655 4.655 0 0 0 1.66.319h.014a4.723 4.723 0 1 0-4.394-3.14l-10.85 1.325L19.628.35a1.166 1.166 0 0 0-.824-.35c-.306.002-.6.124-.817.34L14.68 3.63a1.167 1.167 0 0 0 0 1.65l1.78 1.805a32.686 32.686 0 0 0 5.511 38.638c.094.09.202.161.32.213a6.77 6.77 0 0 0-.114 1.197v13.534h-14A5.84 5.84 0 0 0 2.342 66.5v2.333c0 .645.523 1.167 1.167 1.167h53.667c.644 0 1.166-.522 1.166-1.167V66.5a5.84 5.84 0 0 0-5.833-5.833h-14v-5.998c2.193.46 4.428.694 6.669.7a32.483 32.483 0 0 0 15.4-3.901l1.79 1.8c.216.221.513.347.823.35.306-.002.6-.124.817-.34l3.308-3.29a1.167 1.167 0 0 0 0-1.65ZM50.925 13.635a2.333 2.333 0 1 1 1.645 3.987h-.008a2.333 2.333 0 0 1-1.633-3.987h-.004ZM48.178 21.3l-1.309 6.444-2.571-2.587 3.88-3.857Zm-1.325-1.973-4.2 4.176-3.25-3.267 7.45-.909ZM52.509 63a3.5 3.5 0 0 1 3.5 3.5v1.167H4.676V66.5a3.5 3.5 0 0 1 3.5-3.5h44.333Zm-16.333-4.667v2.334H24.509v-2.334h11.667ZM24.509 56v-8.867c0-2.83 2.617-5.133 5.833-5.133 3.217 0 5.834 2.303 5.834 5.133V56H24.509Zm14-3.71v-5.157c0-4.117-3.663-7.466-8.167-7.466a8.312 8.312 0 0 0-7.177 3.907A30.34 30.34 0 0 1 18.18 8.82l40.692 40.925a30.233 30.233 0 0 1-20.363 2.544Zm24.695-1.496-1.644-1.653L18.792 6.116l-1.65-1.655 1.65-1.645L36.15 20.272c.008 0 .013.015.021.021l28.688 28.856-1.655 1.645Z"></path>
        <path fill="#2196F3" d="M30.353 44.333h-.01a3.5 3.5 0 0 0-.011 7h.01a3.5 3.5 0 1 0 .01-7Zm.816 4.328a1.167 1.167 0 1 1-.827-1.994 1.166 1.166 0 0 1 .817 1.993h.01Z"></path>
      </symbol>

              <!-- img2-reloj-svg-sec-two  SVG -->

<symbol xmlns="http://www.w3.org/2000/svg" fill="none" viewBox="0 0 76 78" id="reloj">
    <g clip-path="url(#a)" filter="url(#b)">
      <path fill="#212121" d="M71.461 33.471C71.458 14.982 56.466-.004 37.975 0 19.485.004 4.5 14.996 4.504 33.486A33.479 33.479 0 0 0 27.799 65.37c.133.042.27.063.41.063.263 0 .521-.071.748-.205.296-.175.516-.453.62-.78l8.454-26.797a4.184 4.184 0 1 0-1.837-7.95L25.025 18.53a1.395 1.395 0 0 0-1.972 1.973l11.163 11.176a4.104 4.104 0 0 0 1.173 5.051l-8.055 25.535C11.414 56.4 3.262 38.74 9.126 22.82 14.991 6.9 32.65-1.252 48.571 4.613c15.92 5.864 24.072 23.524 18.207 39.444A30.72 30.72 0 0 1 50.455 61.5l-.87-4.1a1.394 1.394 0 0 0-2.294-.752l-8.393 7.494a1.394 1.394 0 0 0 .505 2.372l10.716 3.42a1.394 1.394 0 0 0 1.791-1.619l-.855-4.022a33.37 33.37 0 0 0 20.406-30.82Zm-33.478-1.394a1.395 1.395 0 1 1 0 2.79 1.395 1.395 0 0 1 0-2.79Zm4.594 32.515 4.778-4.262 1.319 6.213-6.097-1.951Z"></path>
      <path fill="#2196F3" d="M36.588 6.967v2.79a1.395 1.395 0 1 0 2.79 0v-2.79a1.395 1.395 0 0 0-2.79 0ZM11.479 32.077a1.395 1.395 0 0 0 0 2.79h2.79a1.395 1.395 0 1 0 0-2.79h-2.79ZM64.487 34.867a1.395 1.395 0 1 0 0-2.79h-2.79a1.395 1.395 0 0 0 0 2.79h2.79Z"></path>
    </g>
  </symbol>
      <!-- img3-tv-svg-sec-two  SVG -->

    <svg width="0" height="0" class="hidden">
  <symbol xmlns="http://www.w3.org/2000/svg" fill="none" viewBox="0 0 70 54" id="tv">
    <path fill="#212121" d="M3.498 53.886h55.97a3.498 3.498 0 0 0 3.499-3.498v-4.664a3.498 3.498 0 0 0-3.498-3.498h-1.166v-29.08l6.623-6.274a3.518 3.518 0 1 0-1.633-1.668l-4.99 4.73v-2.69a3.498 3.498 0 0 0-3.498-3.498H8.162a3.498 3.498 0 0 0-3.498 3.498v34.982H3.498A3.498 3.498 0 0 0 0 45.724v4.664a3.498 3.498 0 0 0 3.498 3.498ZM66.465 2.58a1.166 1.166 0 1 1 0 2.332 1.166 1.166 0 0 1 0-2.332ZM6.996 7.244c0-.644.522-1.166 1.166-1.166h46.643c.644 0 1.166.522 1.166 1.166v4.897l-2.332 2.216v-4.78c0-.645-.523-1.167-1.167-1.167H10.495c-.644 0-1.167.522-1.167 1.166v29.152c0 .644.523 1.166 1.167 1.166h41.977c.645 0 1.167-.522 1.167-1.166V17.565l2.332-2.21v26.87H6.996V7.246Zm10.495 15.159a3.498 3.498 0 1 0 2.422 6.012l4.053 2.034c.471.235 1.042.125 1.392-.269l8.616-9.693 8.47 6.347c.455.34 1.089.304 1.501-.086l7.361-6.973v17.787H11.661v-26.82h39.645v5.82l-8.25 7.813-8.54-6.403a1.167 1.167 0 0 0-1.572.157l-8.734 9.828-3.265-1.633c.023-.14.038-.281.044-.423a3.498 3.498 0 0 0-3.498-3.498Zm1.166 3.498a1.166 1.166 0 1 1-2.332 0 1.166 1.166 0 0 1 2.332 0Zm6.996 18.657h11.66v1.166c0 .644-.521 1.166-1.165 1.166h-9.329a1.166 1.166 0 0 1-1.166-1.166v-1.166Zm-23.32 1.166c0-.644.521-1.166 1.165-1.166h19.823v1.166a3.498 3.498 0 0 0 3.498 3.498h9.329a3.498 3.498 0 0 0 3.498-3.498v-1.166h19.823c.644 0 1.166.522 1.166 1.166v4.664c0 .644-.522 1.166-1.166 1.166H3.499a1.166 1.166 0 0 1-1.167-1.166v-4.664Z"></path>
  </symbol>


     <!-- img4-astronauta -svg-sec-two  SVG -->


  <symbol xmlns="http://www.w3.org/2000/svg" fill="none" viewBox="0 0 70 70" id="astronauta">
    <path fill="#2196F3" d="M69.943 9.896a1.168 1.168 0 0 0-.941-.793l-4.18-.608-1.87-3.787c-.391-.798-1.7-.798-2.091 0l-1.87 3.787-4.18.608a1.167 1.167 0 0 0-.648 1.99l3.026 2.948-.714 4.162c-.075.438.105.88.463 1.142.363.263.837.296 1.23.088l3.738-1.966 3.738 1.966a1.168 1.168 0 0 0 1.693-1.23l-.714-4.162 3.025-2.949a1.17 1.17 0 0 0 .295-1.196ZM64.556 12.8c-.275.267-.4.655-.335 1.033l.417 2.437-2.188-1.15a1.165 1.165 0 0 0-1.088 0l-2.188 1.15.417-2.437a1.168 1.168 0 0 0-.334-1.033l-1.773-1.727 2.448-.355c.38-.055.708-.294.879-.639l1.094-2.216 1.094 2.216c.17.345.498.584.879.639l2.448.355-1.77 1.727ZM57.167 44.892h-2.333v2.334h2.333v-2.334ZM57.167 49.56h-2.333v2.332h2.333V49.56ZM59.5 47.226h-2.333v2.333H59.5v-2.333ZM54.834 47.226H52.5v2.333h2.334v-2.333ZM49 57.726h-2.333v2.333H49v-2.333ZM49 62.393h-2.333v2.333H49v-2.333ZM51.334 60.06H49v2.333h2.334v-2.334ZM46.667 60.06h-2.334v2.333h2.334v-2.334ZM35 53.06h-2.333v2.333H35v-2.334ZM35 57.726h-2.333v2.333H35v-2.333ZM37.333 55.392H35v2.334h2.333v-2.334ZM32.667 55.392h-2.334v2.334h2.334v-2.334ZM12.833 13.392H10.5v2.333h2.333v-2.333ZM12.833 18.059H10.5v2.333h2.333V18.06ZM15.166 15.725h-2.333v2.334h2.333v-2.334ZM10.5 15.725H8.166v2.334H10.5v-2.334Z"></path>
    <path fill="#212121" d="M54.063 30.974a3.88 3.88 0 0 0-2.599-1.541 3.886 3.886 0 0 0-2.93.77L45.794 32.3l-.001.002-4.151 3.1-2.97-1.184c5.296-2.376 8.998-7.674 8.998-13.825 0-8.363-6.83-15.167-15.227-15.167s-15.228 6.804-15.228 15.167c0 3.031.907 5.85 2.45 8.222l-6.046-.053h-.01c-.019 0-.034.01-.051.01a1.14 1.14 0 0 0-.34.069c-.028.01-.057.016-.084.029-.014.006-.028.007-.042.014l-7.072 3.491c-.001 0-.003 0-.003.002l-4.141 1.991a.905.905 0 0 0-.138.077A3.895 3.895 0 0 0 .43 39.268a3.884 3.884 0 0 0 2.31 1.944 3.891 3.891 0 0 0 3.016-.281l3.036-1.614 4.952-2.558 2.968-.017L4.808 48.588c0 .002-.002.002-.003.003l-2.929 2.916a3.607 3.607 0 0 0-1.072 2.577c0 .972.38 1.888 1.072 2.578a3.647 3.647 0 0 0 2.58 1.062c.936 0 1.869-.355 2.582-1.062l2.875-2.863 3.808-2.843 1.97 1.962-3.854 3.837-.003.002-2.928 2.917a3.607 3.607 0 0 0-1.073 2.576c0 .973.38 1.889 1.073 2.579a3.65 3.65 0 0 0 2.58 1.061c.935 0 1.87-.354 2.582-1.061l2.93-2.917 4.686-4.667.002-.003 2.21-2.188-.01-.008c.015-.014.035-.019.049-.034l11.3-12.377 7.593 1.08c.055.008.11.012.164.012.142 0 .278-.034.41-.084.039-.014.072-.033.109-.051.042-.021.086-.033.126-.06l7.029-4.666c.026-.018.04-.046.064-.065.028-.022.063-.031.089-.056l2.78-2.605a3.892 3.892 0 0 0 .465-5.166ZM4.66 38.872a1.56 1.56 0 0 1-1.221.113 1.565 1.565 0 0 1-.465-2.755l2.874-1.383.692 2.022.29.85-2.17 1.153Zm7.65-3.998-3.387 1.75-.558-1.633-.402-1.174 4.434-2.189-.087 3.246Zm33.03-14.482c0 2.009-.48 3.904-1.31 5.599l-9.147-4.155a4.07 4.07 0 0 0-1.724-3.035L36.36 8.168c5.202 1.655 8.98 6.507 8.98 12.224Zm-25.788 0c0-7.076 5.784-12.834 12.894-12.834.553 0 1.094.047 1.63.115L30.943 18.07c-.042 0-.081-.013-.125-.013a4.094 4.094 0 0 0-4.096 4.084 4.094 4.094 0 0 0 4.096 4.083c1.52 0 2.832-.838 3.54-2.066l8.45 3.838c-2.352 3.165-6.114 5.228-10.362 5.228-7.11 0-12.894-5.757-12.894-12.833Zm13.03 1.75c0 .965-.792 1.75-1.764 1.75a1.759 1.759 0 0 1-1.762-1.75c0-.965.79-1.75 1.762-1.75s1.763.785 1.763 1.75ZM5.391 55.007a1.33 1.33 0 0 1-1.87.002 1.3 1.3 0 0 1 0-1.847l2.105-2.097L7.49 52.92l-2.097 2.088Zm7.03 8.167a1.33 1.33 0 0 1-1.87.002 1.299 1.299 0 0 1 0-1.847l2.106-2.098.88.876.983.978-2.099 2.09Zm7.616-7.588-.003.003-3.86 3.85-.882-.877-.982-.977 3.857-3.84v-.001l.004-.002c.087-.088.142-.193.196-.297.015-.03.044-.056.057-.087.036-.09.042-.187.056-.281.007-.054.03-.104.03-.16 0-.077-.028-.153-.044-.23-.014-.07-.014-.141-.041-.209a1.166 1.166 0 0 0-.2-.301c-.022-.026-.03-.058-.054-.083h-.002s0-.003-.002-.005l-3.515-3.5c-.037-.037-.085-.052-.127-.084a1.117 1.117 0 0 0-.19-.126 1.095 1.095 0 0 0-.205-.07 1.132 1.132 0 0 0-.225-.044 1.141 1.141 0 0 0-.209.01c-.078.01-.151.02-.227.045-.074.023-.139.06-.207.098-.043.024-.092.033-.133.063l-3.879 2.896-1.97-1.963 5.247-5.22 9.54 9.382-2.03 2.01Zm14.916-15.349c-.033-.005-.065.008-.099.006a1.146 1.146 0 0 0-.252.015c-.066.012-.13.025-.192.047a1.08 1.08 0 0 0-.211.102 1.13 1.13 0 0 0-.182.135c-.028.024-.062.036-.088.064L23.653 51.862l-9.468-9.311 6.197-6.165a1.168 1.168 0 0 0-.83-1.993l-4.854.028.061-3.516 6.79.058a15.2 15.2 0 0 0 10.897 4.596c.957 0 1.89-.1 2.799-.268.087.07.174.14.283.185l5.272 2.1.333 1.659.39 1.937-6.569-.935Zm8.84.39-.684-3.408 3.164-2.363.828 1.1 1.242 1.649-4.55 3.022Zm8.212-6.193-1.833 1.717-2.037-2.704 1.818-1.394c.34-.261.768-.368 1.188-.313.422.06.796.28 1.05.622a1.562 1.562 0 0 1-.187 2.072Z"></path>
    <path fill="#212121" d="m29.755 40.565-4.688-4.667a1.166 1.166 0 0 0-1.646 0l-4.687 4.667a1.172 1.172 0 0 0 0 1.654l4.686 4.667a1.166 1.166 0 0 0 1.647 0l4.688-4.667a1.167 1.167 0 0 0 0-1.654Zm-5.51 3.848-3.034-3.02 3.033-3.021 3.035 3.02-3.035 3.02ZM37.547 11.092l-.564 2.266c.156.039 3.801.988 3.801 4.7h2.334c0-4.412-3.644-6.486-5.571-6.966ZM43.118 20.392h-2.334v2.333h2.334v-2.333Z"></path>
  </symbol>


   <!-- section 3 img svg caja 1 -->
   
   <!-- end section 3 img svg caja 1 -->



     <!-- section 4  img svg redes  -->
        <!-- instagram  SVG -->

  <symbol xmlns="http://www.w3.org/2000/svg" fill="#fff" viewBox="0 0 44 44" id="instragam">
    <path fill="#2196F3" d="M44 22a21.931 21.931 0 0 1-6.444 15.556A21.931 21.931 0 0 1 22 44a21.931 21.931 0 0 1-15.556-6.444A21.931 21.931 0 0 1 0 22 21.931 21.931 0 0 1 6.444 6.444 21.931 21.931 0 0 1 22 0a21.931 21.931 0 0 1 15.556 6.444A21.931 21.931 0 0 1 44 22Z"></path>
    <!-- <g fill="#fff" clip-path="url(#a)"> -->
     <g fill="#fff" clip-path="url(#a)">
      <path d="M31.98 17.88c-.046-1.063-.218-1.793-.464-2.426a4.881 4.881 0 0 0-1.157-1.774 4.922 4.922 0 0 0-1.77-1.153c-.637-.246-1.363-.418-2.426-.464-1.07-.051-1.41-.063-4.126-.063-2.715 0-3.055.012-4.122.059-1.063.046-1.793.219-2.426.465a4.879 4.879 0 0 0-1.774 1.156 4.923 4.923 0 0 0-1.152 1.77c-.247.637-.418 1.363-.465 2.426-.051 1.07-.063 1.41-.063 4.126 0 2.715.012 3.055.059 4.122.047 1.063.219 1.793.465 2.426a4.932 4.932 0 0 0 1.156 1.774c.5.508 1.106.902 1.77 1.152.637.247 1.364.419 2.426.465 1.067.047 1.407.059 4.122.059 2.716 0 3.055-.012 4.122-.059 1.063-.046 1.793-.218 2.426-.464a5.116 5.116 0 0 0 2.927-2.927c.246-.637.418-1.364.465-2.426.047-1.067.058-1.407.058-4.122s-.004-3.055-.05-4.122Zm-1.8 8.166c-.044.977-.208 1.504-.344 1.855a3.318 3.318 0 0 1-1.9 1.9c-.35.136-.882.3-1.855.343-1.055.047-1.371.059-4.04.059-2.668 0-2.989-.012-4.04-.059-.977-.043-1.504-.207-1.856-.344a3.076 3.076 0 0 1-1.148-.746 3.109 3.109 0 0 1-.747-1.148c-.136-.352-.3-.883-.343-1.856-.047-1.055-.059-1.372-.059-4.04 0-2.669.012-2.99.059-4.04.043-.977.207-1.504.343-1.856a3.04 3.04 0 0 1 .75-1.149 3.104 3.104 0 0 1 1.15-.746c.35-.136.882-.3 1.855-.344 1.055-.046 1.372-.058 4.04-.058 2.672 0 2.989.011 4.04.058.977.043 1.504.207 1.856.344.433.16.828.414 1.148.746.332.325.586.715.747 1.15.136.35.3.882.343 1.855.047 1.055.059 1.371.059 4.04 0 2.668-.012 2.98-.059 4.036Z"></path>
      <path d="M22.037 16.864a5.139 5.139 0 1 0 5.138 5.138 5.139 5.139 0 0 0-5.138-5.138Zm0 8.47a3.333 3.333 0 1 1 .001-6.666 3.333 3.333 0 0 1 0 6.667ZM28.578 16.661a1.2 1.2 0 1 1-2.4 0 1.2 1.2 0 0 1 2.4 0Z"></path>
    </g>
    <defs>
      <clipPath id="a">
        <path fill="#fff" d="M12 12h20v20H12z"></path>
      </clipPath>
    </defs>
  </symbol>


   <!-- twiter   SVG -->
  <symbol fill="none" xmlns="http://www.w3.org/2000/svg" viewBox="0 0 20 20" id="twiter">
    <g clip-path="url(#clip0_75273_597)">
      <path d="M20 3.79875C19.2562 4.125 18.4637 4.34125 17.6375 4.44625C18.4875 3.93875 19.1363 3.14125 19.4413 2.18C18.6488 2.6525 17.7737 2.98625 16.8412 3.1725C16.0887 2.37125 15.0162 1.875 13.8462 1.875C11.5762 1.875 9.74875 3.7175 9.74875 5.97625C9.74875 6.30125 9.77625 6.61375 9.84375 6.91125C6.435 6.745 3.41875 5.11125 1.3925 2.6225C1.03875 3.23625 0.83125 3.93875 0.83125 4.695C0.83125 6.115 1.5625 7.37375 2.6525 8.1025C1.99375 8.09 1.3475 7.89875 0.8 7.5975C0.8 7.61 0.8 7.62625 0.8 7.6425C0.8 9.635 2.22125 11.29 4.085 11.6712C3.75125 11.7625 3.3875 11.8062 3.01 11.8062C2.7475 11.8062 2.4825 11.7912 2.23375 11.7362C2.765 13.36 4.2725 14.5537 6.065 14.5925C4.67 15.6837 2.89875 16.3412 0.98125 16.3412C0.645 16.3412 0.3225 16.3262 0 16.285C1.81625 17.4562 3.96875 18.125 6.29 18.125C13.835 18.125 17.96 11.875 17.96 6.4575C17.96 6.27625 17.9537 6.10125 17.945 5.9275C18.7587 5.35 19.4425 4.62875 20 3.79875Z" fill="#AFB1B8"></path>
    </g>
    <defs>
      <clipPath id="clip0_75273_597">
        <rect width="20" height="20" fill="white"></rect>
      </clipPath>
    </defs>
  </symbol>

   <!-- facebook  SVG -->
  <symbol xmlns="http://www.w3.org/2000/svg" fill="none" viewBox="0 0 20 20" id="facebook">
    <g clip-path="url(#a)">
      <path fill="#AFB1B8" d="M13.33 3.32h1.827V.14a23.576 23.576 0 0 0-2.66-.14C9.864 0 8.06 1.656 8.06 4.7v2.8H5.156v3.555H8.06V20h3.562v-8.944h2.787l.443-3.555h-3.231V5.05c0-1.027.277-1.73 1.709-1.73Z"></path>
    </g>
    <defs>
      <clipPath id="a">
        <path fill="#fff" d="M0 0h20v20H0z"></path>
      </clipPath>
    </defs>
  </symbol>

  <!-- lindking   SVG -->
  <symbol xmlns="http://www.w3.org/2000/svg" fill="none" viewBox="0 0 20 20" id="linkedin">
    <g fill="#AFB1B8" clip-path="url(#a)">
      <path d="M19.995 20H20v-7.336c0-3.588-.773-6.352-4.967-6.352-2.017 0-3.37 1.106-3.923 2.156h-.058V6.647H7.074v13.352h4.142v-6.611c0-1.741.33-3.425 2.486-3.425 2.124 0 2.155 1.987 2.155 3.536V20h4.138ZM.33 6.647h4.147V20H.33V6.647ZM2.402 0A2.402 2.402 0 0 0 0 2.402c0 1.325 1.076 2.424 2.402 2.424 1.325 0 2.401-1.098 2.401-2.424A2.403 2.403 0 0 0 2.402 0Z"></path>
    </g>
    <defs>
      <clipPath id="a">
        <path fill="#fff" d="M0 0h20v20H0z"></path>
      </clipPath>
    </defs>
  </symbol>
   <!-- end section 4 img svg redes   -->

  <!-- start  five section  regular customer  img svg -->

<!-- logo one   regular customer  SVG -->

<symbol xmlns="http://www.w3.org/2000/svg" fill="none" viewBox="0 0 170 81" id="customer-logo1">
    <rect width="169" height="80" x=".5" y=".5" stroke="#AFB1B8" rx="3.5"></rect>
    <g clip-path="url(#a)">
      <path fill="#AFB1B8" fill-rule="evenodd" d="m70 21 7 6.7H64V60h34V47.6l7 6.6V21.1H70Zm27.7 25.8L77.8 28h19.9v18.8Zm-6.2 8.4H69.4V33.5h1.5v20.2h20.6v1.5Zm-16.9 9-.8 1.7-.8-1.7h-.7l1.2 2.2v1.3h.6v-1.3l1.2-2.2h-.7Zm1 3.5.3-.8h1.4l.3.8h.6L77 64.2h-.6L75 67.7h.6Zm1-2.8.5 1.5h-1l.5-1.5Zm3.3 1.4-.2.5c0 .3.1.5.4.7.2.2.4.3.8.3l.9-.3.2.2h.7l-.5-.6c.2-.3.3-.6.3-1H82c0 .2 0 .4-.2.6l-.7-.8.3-.2c.1-.1.3-.2.3-.4a.8.8 0 0 0-.1-1 .9.9 0 0 0-.6-.2 1 1 0 0 0-.7.3c-.2.1-.3.4-.3.6l.1.4.3.4a2 2 0 0 0-.5.5Zm1.6.8a1 1 0 0 1-.6.2l-.4-.1a.5.5 0 0 1-.2-.4c0-.2.1-.4.3-.5l.1-.1.8 1Zm-.7-1.6-.2-.5v-.3H81.3l.1.3-.1.3-.4.2Zm5.8 2c.3-.2.4-.5.4-1h-.6c0 .3 0 .5-.2.6l-.6.2a.7.7 0 0 1-.6-.3l-.2-.9v-.3c0-.4.1-.7.3-.9.1-.2.3-.3.6-.3.2 0 .4 0 .5.2l.2.6h.6c0-.4-.1-.7-.4-1-.2-.2-.5-.3-1-.3l-.7.2-.5.6a2 2 0 0 0-.2 1v.3c0 .3 0 .6.2.8.1.3.3.5.5.6l.7.2c.5 0 .8-.1 1-.3Zm3.7-.5.1-1V66c0-.4 0-.7-.2-1a1.4 1.4 0 0 0-1.2-.8l-.8.2-.5.7c-.2.2-.2.5-.2.9v.2c0 .3 0 .6.2.9 0 .2.3.4.5.6l.8.2c.3 0 .5 0 .7-.2l.6-.6Zm-.7-2 .2.9v.2c0 .4 0 .7-.2.9l-.6.3a.7.7 0 0 1-.7-.3l-.2-1V66c0-.4 0-.7.2-1 .2-.1.4-.3.7-.3.2 0 .4.2.6.4Z" clip-rule="evenodd"></path>
    </g>
    <defs>
      <clipPath id="a">
        <path fill="#fff" d="M32 14h106V67H32z"></path>
      </clipPath>
    </defs>
  </symbol>

  <!-- logo  two  regular customer  SVG -->
  <symbol xmlns="http://www.w3.org/2000/svg" fill="none" viewBox="0 0 170 81" id="customer-logo2">
    <rect width="169" height="80" x=".5" y=".5" stroke="#AFB1B8" rx="3.5"></rect>
    <g fill="#AFB1B8" clip-path="url(#a)">
      <path fill-rule="evenodd" d="M82.1 20H81a24 24 0 0 0-1.3 0c-3.6.2-7.2 1.1-10.5 2.7l-.5.2v22.2l1-.4a38.4 38.4 0 0 1 11-1.9v3h-1.1a32.4 32.4 0 0 0-13.7 3.8V21.2a29.7 29.7 0 0 1 15-4.1h.5a29.2 29.2 0 0 1 5.2.6v2.9a22.6 22.6 0 0 0-3.7-.5h-.7Zm5 3h2a31.5 31.5 0 0 0 15.1-3.9v28a29.8 29.8 0 0 1-20.6 3.4v-28a23 23 0 0 0 3.6.4Zm14.2.2-1 .3-2.8.8a34.3 34.3 0 0 1-10.2 1h-.8v22.8h.6l2 .1a26.9 26.9 0 0 0 11.8-2.7l.4-.2V23.2Z" clip-rule="evenodd"></path>
      <path d="M67.7 59.3a1.5 1.5 0 0 0-1-.5c-.3 0-.5 0-.7.2-.2 0-.4.2-.5.3l-.4.5V64.2c-.1.3 0 .6 0 .8l.4.5.6.3h1.1a1.6 1.6 0 0 0 1-1.5v-.5h-1v.7l-.2.2-.2.1h-.2a.5.5 0 0 1-.5-.1l-.1-.5v-3.6l.1-.5a.5.5 0 0 1 .5-.3.5.5 0 0 1 .4.2c.2.2.2.4.2.6v.3h1v-.4a1.8 1.8 0 0 0-.5-1.2ZM73.6 59.3a1.8 1.8 0 0 0-1.7-.4l-.5.4-.4.5-.1.7v3.7l.1.7c0 .2.2.4.4.5.1.2.3.3.5.3a1.7 1.7 0 0 0 1.2 0c.2 0 .4-.1.5-.3a1.6 1.6 0 0 0 .5-1.2v-3.7l-.1-.7c0-.2-.2-.4-.4-.5Zm-.4 4.9a.7.7 0 0 1-.2.5.7.7 0 0 1-1 0 .6.6 0 0 1-.2-.5v-3.7a.7.7 0 0 1 .2-.5.7.7 0 0 1 1 0 .7.7 0 0 1 .2.5v3.7ZM81.4 65.8v-6.9h-1l-1.2 3.6-1.3-3.6h-1v6.9h1v-4.2l1 3h.5l1-3v4.2h1ZM87 59.4l-.6-.4-.7-.1h-1.5v6.9h1V63h.5c.3 0 .6 0 .9-.2l.5-.5.3-.6a4.9 4.9 0 0 0 0-1.8l-.4-.6Zm-.5 2-.1.4-.3.3a1 1 0 0 1-.5 0h-.4v-2.3h.5l.4.1.3.3v1.3ZM91.6 58.9h-.8l-1.5 6.9h1l.3-1.5h1.3l.3 1.5h1l-1.6-6.9Zm-.9 4.5.5-2.5.5 2.5h-1ZM98 63 96.3 59h-.9v6.9h1v-4.2l1.5 4.2h1v-6.9h-1V63ZM104 58.9l-.8 2.7-.9-2.7h-1l1.4 4v2.9h1v-3L105 59h-1Z"></path>
    </g>
    <defs>
      <clipPath id="a">
        <path fill="#fff" d="M32 14h106V67H32z"></path>
      </clipPath>
    </defs>
  </symbol>
  
<!-- logo three   regular customer  SVG -->
  <symbol xmlns="http://www.w3.org/2000/svg" fill="none" viewBox="0 0 170 81" id="customer-logo3">
    <rect width="169" height="80" x=".5" y=".5" stroke="#AFB1B8" rx="3.5"></rect>
    <path fill="#AFB1B8" d="m68.4 63.2.3.2-.6.4-.9.2c-.3 0-.5 0-.8-.2l-.6-.3-.4-.6a2 2 0 0 1 0-1.5l.4-.6.7-.4a2.6 2.6 0 0 1 1.6 0l.6.4-.2.2H68.2l-.1-.1a1.6 1.6 0 0 0-.8-.2l-.6.1c-.2 0-.3.2-.5.3l-.3.5v1.1l.3.5.5.3H67.6a1.3 1.3 0 0 0 .7-.3h.1ZM74.7 62.1l-.1.8-.5.5c-.1.2-.4.3-.6.4-.5.2-1.1.2-1.7 0a2 2 0 0 1-.6-.4l-.4-.5a2 2 0 0 1 0-1.5c0-.2.2-.4.4-.6l.6-.3c.6-.2 1.2-.2 1.7 0l.6.3a1.7 1.7 0 0 1 .6 1.3Zm-.6 0v-.6a1.2 1.2 0 0 0-.8-.7 2 2 0 0 0-1.2 0c-.2 0-.4.2-.5.3l-.3.4v1.2a1.2 1.2 0 0 0 .8.8h1.2l.4-.3c.2-.2.3-.3.3-.5l.1-.6ZM79 62.8h.1v-.2l1.5-2.2H81.3v3.5h-.5V61.1l-1.4 2.2-.2.1h-.2v-.1L77.3 61V64h-.5v-3.5h.6l1.4 2.2.1.2ZM84.2 62.6v1.3h-.5v-3.5h1.9c.2 0 .3.1.5.3l.2.3.1.5v.4l-.4.4-.4.2h-1.4Zm0-.4h1.1l.3-.2.2-.2v-.6c0-.1 0-.2-.2-.3l-.7-.2h-.7v1.5ZM91.6 64H91v-.1H91l-.4-1h-1.9l-.4 1H87.7l1.6-3.6h.6l1.7 3.6Zm-2.7-1.4h1.5l-.6-1.5-.2-.3V61.1l-.7 1.5ZM94 60.4l2.4 2.7V60.3h.5V64h-.4L94 61V64h-.5v-3.6h.4ZM100.9 62.5V64h-.5v-1.4l-1.6-2.1h.7l1 1.5a2.1 2.1 0 0 1 .1.3l.1-.2.1-.1 1-1.4v-.1h.6l-1.5 2.1ZM78.7 54.3l.8.1a20 20 0 0 0 8.9-6.7c2.2-3 3.3-6.4 3.2-10l-4-3.4a18 18 0 0 1-1.2 11 21 21 0 0 1-7.7 9Z"></path>
    <path fill="#AFB1B8" d="M77.3 54.2c3.8-2.3 6.6-5.5 8.2-9.2 1.6-3.7 1.8-7.8.7-11.6l-5.7-5a21.5 21.5 0 0 1-3.2 25.8ZM96.9 42a18 18 0 0 1-6.8 9.8c-1 .8-2.1 1.4-3.3 2a20 20 0 0 0 7.6-3.7c2-1.7 3.8-3.8 4.8-6.2L97 42Z"></path>
    <path fill="#AFB1B8" d="m96 41.3-3.4-2.8c0 3.3-1.1 6.5-3.1 9.3-2 2.8-4.8 5.1-8.2 6.7l2.3-.1c3.1-1.2 5.9-3 8-5.2a17 17 0 0 0 4.3-7.9ZM77.8 26.2l-4-3.4a18.7 18.7 0 0 0-8.8 6 15 15 0 0 0-3.3 9.3c0 3.6 1.4 7.2 4 10 2.6 3 6.2 5 10.3 5.9a21.2 21.2 0 0 0 1.7-27.7ZM105.1 40.8c0-4.3-2-8.5-5.5-11.6a20.5 20.5 0 0 0-20-3.7l24.3 21.2c.8-1.9 1.2-3.9 1.2-5.9Z"></path>
  </symbol>
   <!-- logo four   regular customer  SVG -->
  
  <symbol xmlns="http://www.w3.org/2000/svg" fill="none" viewBox="0 0 170 81" id="customer-logo4">
    <rect width="169" height="80" x=".5" y=".5" stroke="#2196F3" rx="3.5"></rect>
    <path fill="#2196F3" d="M56.1 35.2c-2.4 0-4.3 1.7-4.3 3.8 0 2.2 2 4 4.3 4 2.4 0 4.4-1.8 4.4-4 0-2-2-3.8-4.4-3.8ZM88.2 34c0-3-1.3-5.8-3.7-8-2.3-2-5.5-3.2-8.9-3.2-3.3 0-6.5 1.2-8.9 3.3-2.3 2-3.6 4.9-3.6 7.9v16.3S88 47.8 88 34ZM43 55.6c0 2.1 1 4 2.6 5.5a9.4 9.4 0 0 0 6.1 2.3c2.4 0 4.6-.8 6.2-2.3a7.4 7.4 0 0 0 2.6-5.5V44.3S43 46 43 55.6Zm8.7 2c-.4 0-.9 0-1.2-.3-.4-.2-.7-.5-.9-.9-.1-.4-.2-.8-.1-1.2 0-.4.3-.7.6-1 .3-.3.8-.5 1.2-.6.4 0 .9 0 1.3.2.4.1.8.4 1 .7a1.9 1.9 0 0 1-.2 2.6l-.8.4-.9.2ZM67.7 54v4.3H67V54h.8Zm1.7 1.9v.6h-2V56h2Zm.2-1.9v.7h-2.1V54h2.1Zm4 2v1.1l-.5.7-.5.4-.8.2-.7-.2c-.2 0-.4-.2-.6-.4a2 2 0 0 1-.4-.7v-2l.4-.6.6-.4.7-.1.8.1.5.4.4.7.1.9Zm-.8.3V56l-.1-.6-.2-.5a.8.8 0 0 0-.7-.3h-.4l-.3.3-.1.5-.1.6v.8l.2.4.3.3h.8l.3-.3.2-.4v-.6Zm3.7.9V57l-.2-.2-.2-.2-.4-.1-.6-.2-.4-.3-.4-.4a1 1 0 0 1 0-.4v-.5l.4-.4.5-.2a2.3 2.3 0 0 1 1.4 0l.6.5.2.7h-.9V55l-.3-.3h-.4a1 1 0 0 0-.4 0l-.2.2v.5l.1.1.3.2h.4l.6.3.4.3a1.1 1.1 0 0 1 .4.9l-.1.5-.3.3-.5.3a2.4 2.4 0 0 1-1.8-.3l-.4-.4-.2-.6h.9v.3l.2.2.3.1h.7a.5.5 0 0 0 .3-.4Zm3.4-3.2v4.3H79V54h.9Zm1.3 0v.7h-3.5V54h3.5Zm3.4 3.6v.7h-2.3v-.7h2.3Zm-2-3.6v4.3h-.9V54h.9Zm1.7 1.8v.6h-2v-.6h2Zm.3-1.8v.7h-2.3V54h2.3Zm.5 0h1.6c.3 0 .6 0 .8.2.2 0 .4.2.6.4l.1.7v.6l-.4.4-.5.3-.3.1h-1.4V56h1.5l.2-.3V55l-.2-.2H86v3.5h-1V54Zm2.4 4.3-1-2h1l.9 2h-1Zm4.6-1.5H91V56h1.5c0-.2.2-.2.2-.3V55l-.2-.3a.8.8 0 0 0-.4 0h-.8v3.5h-.9V54h1.7c.3 0 .6 0 .8.2a1.3 1.3 0 0 1 .8 1.2c0 .3 0 .5-.2.7-.1.2-.3.4-.6.5a2 2 0 0 1-.8.2Zm5 .8v.7H95v-.7H97Zm-2-3.6v4.3h-.8V54h.9Zm1.7 1.8v.6h-2v-.6h2Zm.3-1.8v.7H95V54H97Zm2.5 0v4.3h-.9V54h1Zm1.3 0v.7h-3.4V54h3.4Zm3.4 3.6v.7H102v-.7h2.3Zm-2-3.6v4.3h-.9V54h1Zm1.7 1.8v.6h-2v-.6h2Zm.3-1.8v.7H102V54h2.3Zm.5 0h1.6c.3 0 .6 0 .8.2.3 0 .5.2.6.4l.2.7-.1.6-.4.4-.5.3-.2.1h-1.4V56h1.4l.2-.3.1-.3V55l-.3-.2h-1.1v3.5h-.9V54Zm2.4 4.3-1-2h1l1 2h-1Zm3.7-1.1V57l-.2-.2-.2-.2-.5-.1-.5-.2-.5-.3-.3-.4a1 1 0 0 1 0-.4v-.5l.3-.4.5-.2a2.2 2.2 0 0 1 1.5 0l.6.5.1.7h-.8l-.1-.3-.2-.3h-.4a1 1 0 0 0-.4 0l-.2.2-.1.3v.2l.2.1.3.2h.3l.6.3.5.3a1.1 1.1 0 0 1 .4.9c0 .2 0 .3-.2.5l-.3.3-.5.3a2.4 2.4 0 0 1-1.8-.3l-.4-.4-.1-.6h.9v.3l.2.2.3.1h.7a.5.5 0 0 0 .3-.4Z"></path>
  </symbol>
  <!-- logo five   regular customer  SVG -->
  <symbol xmlns="http://www.w3.org/2000/svg" fill="none" viewBox="0 0 106 53" id="customer-logo5">
    <g fill="#AFB1B8" clip-path="url(#a)">
      <path d="M26.8 44.8c.2.3.3.6.3 1l-.1.7-.4.5c-.5.4-1.1.5-1.7.5H22v-6.2h2.8c.6 0 1.2.1 1.6.4l.4.5.2.7c0 .3-.1.6-.4 1l-.8.4c.4 0 .7.2 1 .5Zm-3.4-1h1.2c.2.1.5 0 .7-.1l.2-.3.1-.3v-.4l-.3-.2c-.2-.2-.5-.3-.8-.2h-1.1v1.6Zm2 2.5.3-.3v-.7l-.2-.3c-.3-.2-.6-.2-.9-.2h-1.2v1.7h1.2c.3 0 .6 0 .9-.2ZM32.6 47.5 31 45h-.6v2.4H29v-6.2h2.6c.7 0 1.3.1 1.8.5.4.4.6.8.6 1.3 0 .4-.1.9-.4 1.3-.3.3-.8.5-1.2.6l1.7 2.5h-1.5Zm-2.2-3.3h1.1c.8 0 1.2-.3 1.2-1l-.1-.3a1 1 0 0 0-.2-.3l-.9-.3h-1.1v2ZM40 46.2h-2.7l-.5 1.3h-1.4l2.5-6.1h1.5l2.5 6h-1.4l-.5-1.2Zm-.4-.9-1-2.6-1 2.6h2ZM49.3 47.5H48l-3-4.2v4.2h-1.4v-6.2h1.3l3 4.2v-4.2h1.4v6.2ZM57 46c-.2.5-.7.8-1.2 1-.6.4-1.2.5-1.9.5h-2.4v-6.2H54c.7 0 1.3.1 2 .4.4.2.9.6 1.1 1a3.4 3.4 0 0 1 0 3.3Zm-1.5-.1c.4-.5.6-1 .6-1.5 0-.6-.2-1-.6-1.5-.5-.4-1-.6-1.7-.5h-1v4h1c.6 0 1.2-.2 1.7-.5ZM40.9 6.9s17.4 6 17 14.7v14.8s-17.4-6-17-14.8V6.9ZM73.5 32.9c3.3-2 7-3.4 11-3.7v-4.7a22.4 22.4 0 0 0-11 8.4Z"></path>
      <path d="M71.5 34.3c2.7-5 7.4-8.8 13-10.7V10.3s-24.8 8.6-24.3 21v21l2.9-1.1v-2c.6-5.8 3.6-11.2 8.4-14.9Z"></path>
      <path d="M69.1 42.1c.2-1.5.4-2.9.9-4.3a19.4 19.4 0 0 0-5.3 12.7l4.8-2.3c-.4-2-.6-4-.4-6.1ZM70.1 42.2a19 19 0 0 0 .3 5.5c6.8-3.7 14.4-9.5 14.1-16.4v-.6c-4.8.5-9.4 2.4-12.9 5.5-.8 2-1.3 4-1.5 6Z"></path>
    </g>
    <defs>
      <clipPath id="a">
        <path fill="#fff" d="M0 0h106V53H0z"></path>
      </clipPath>
    </defs>
  </symbol>

<!-- logo six  regular customer  SVG -->
  <symbol xmlns="http://www.w3.org/2000/svg" fill="none" viewBox="0 0 94 45" id="customer-logo6">
    <path fill="#AFB1B8" d="M47.4 21.5a3 3 0 0 1-.6-2v-2.9c0-.9.2-1.5.6-2 .4-.5 1.1-.7 2-.7 1 0 1.7.2 2 .6.5.5.7 1.1.6 1.7v.7h-1.6V15.6c0-.2-.2-.3-.3-.4a1 1 0 0 0-.6-.2 1 1 0 0 0-.6.2c-.2 0-.3.2-.3.4v4.2l.1 1 .4.2c.1 0 .3.1.4 0h.6l.2-.5v-1.4H52v.6c0 .7-.1 1.3-.5 1.9-.4.4-1 .6-2 .6s-1.7-.2-2-.7ZM54.3 21.5c-.5-.4-.7-1-.7-2v-3c0-.8.2-1.5.7-2 .4-.4 1-.6 2-.6s1.7.2 2.1.7c.4.4.6 1 .6 2v3c0 .8-.2 1.5-.6 2-.4.4-1.1.6-2 .6-1 0-1.7-.2-2.1-.7Zm2.8-.7.2-.9v-3.7c0-.3 0-.6-.2-.9l-.3-.2a1 1 0 0 0-.5 0 1 1 0 0 0-.4 0l-.3.2c-.2.3-.3.6-.2.9v3.7c0 .3 0 .6.2 1l.3.1a1.2 1.2 0 0 0 .9 0s.2 0 .3-.2ZM61 14h1.8l1.3 5.6 1.4-5.6h1.7l.1 8h-1.2l-.2-5.5-1.3 5.6h-1l-1.3-5.6L62 22h-1.3l.2-8ZM69.3 14h2.8c1.6 0 2.4.8 2.4 2.3 0 1.5-.9 2.2-2.5 2.2h-1v3.6h-1.7v-8Zm2.4 3.5h.5l.4-.3.3-.9-.1-.7-.1-.3-.3-.1-.7-.2H71v2.5h.7ZM77 14h1.7l2 8H79l-.3-1.8H77l-.4 1.9H75l2-8Zm1.5 5.3-.7-3.4-.6 3.4h1.3ZM82.1 14h1.2l2.3 4.6V14H87v8h-1.1l-2.3-4.7V22H82v-8ZM90.3 19l-1.9-5H90l1.2 3.2 1-3.2h1.6l-1.9 5v3h-1.6v-3ZM50 25.6v.4h-1.3v3.3H48V26h-1.4v-.4H50ZM54.4 29.3h-.5l-.2-.1-.4-.9h-1.9l-.4.9v.1H50.4l1.7-3.7h.6l1.7 3.7ZM51.6 28h1.6l-.7-1.5-.1-.3v.2l-.1.1-.7 1.5ZM57.3 29h.3a2 2 0 0 0 .6-.2h.2v-.9H57.6v-.4h1.3V29a2.6 2.6 0 0 1-1.1.3h-1.4a2 2 0 0 1-.7-.5l-.4-.5-.2-.8c0-.3 0-.5.2-.8 0-.2.2-.4.4-.6l.7-.4a2.9 2.9 0 0 1 1.4 0 2.3 2.3 0 0 1 .7.2l.3.2-.1.2h-.4L58 26a2.1 2.1 0 0 0-.7 0 2 2 0 0 0-.7 0l-.5.3-.3.5V28c0 .2.2.4.4.5a1.5 1.5 0 0 0 1.1.4ZM62.7 28.9h1.9v.4h-2.4v-3.7h.5V29ZM66.5 29.3H66v-3.7h.6v3.7ZM68.7 25.6v.1l2.6 2.8V25.6h.5v3.7h-.5l-2.5-2.9V29.3h-.5v-3.7h.3ZM76 25.6v.4h-2v1.2h1.6v.4H74V29h2v.4h-2.6v-3.7H76ZM15.2 2.7 41 9.1v22.1L15.2 25V2.7ZM13.5 1v25l29.1 7.2V8L13.6.9Z"></path>
    <path fill="#AFB1B8" d="M29.1 44.8 0 37.6v-25l29.1 7v25.2Z"></path>
    <path fill="#AFB1B8" d="m14 2.5 25.4 6.2-10.8 9.4-25.4-6.3L14 2.5ZM13.5.9 0 12.5l29.1 7.2L42.6 8 13.6.9ZM30.7 43.4l12-10.3-12-2.9v13.2Z"></path>
  </symbol>

 <!-- end five section  regular customer  img svg -->



 <!-- start foot img svg -->

   <!-- instragam foot img svg -->
  <symbol xmlns="http://www.w3.org/2000/svg" fill="#000" viewBox="0 0 44 44" id="instragam-footer">
    <path fill="#43444D" d="M44 22a21.931 21.931 0 0 1-6.444 15.556A21.931 21.931 0 0 1 22 44a21.931 21.931 0 0 1-15.556-6.444A21.931 21.931 0 0 1 0 22 21.931 21.931 0 0 1 6.444 6.444 21.931 21.931 0 0 1 22 0a21.931 21.931 0 0 1 15.556 6.444A21.931 21.931 0 0 1 44 22Z"></path>
     <g fill="#F3F3F4" clip-path="url(#a)">
      <path d="M31.98 17.88c-.046-1.063-.218-1.793-.464-2.426a4.881 4.881 0 0 0-1.157-1.774 4.922 4.922 0 0 0-1.77-1.153c-.637-.246-1.363-.418-2.426-.464-1.07-.051-1.41-.063-4.126-.063-2.715 0-3.055.012-4.122.059-1.063.046-1.793.219-2.426.465a4.879 4.879 0 0 0-1.774 1.156 4.923 4.923 0 0 0-1.152 1.77c-.247.637-.418 1.363-.465 2.426-.051 1.07-.063 1.41-.063 4.126 0 2.715.012 3.055.059 4.122.047 1.063.219 1.793.465 2.426a4.932 4.932 0 0 0 1.156 1.774c.5.508 1.106.902 1.77 1.152.637.247 1.364.419 2.426.465 1.067.047 1.407.059 4.122.059 2.716 0 3.055-.012 4.122-.059 1.063-.046 1.793-.218 2.426-.464a5.116 5.116 0 0 0 2.927-2.927c.246-.637.418-1.364.465-2.426.047-1.067.058-1.407.058-4.122s-.004-3.055-.05-4.122Zm-1.8 8.166c-.044.977-.208 1.504-.344 1.855a3.318 3.318 0 0 1-1.9 1.9c-.35.136-.882.3-1.855.343-1.055.047-1.371.059-4.04.059-2.668 0-2.989-.012-4.04-.059-.977-.043-1.504-.207-1.856-.344a3.076 3.076 0 0 1-1.148-.746 3.109 3.109 0 0 1-.747-1.148c-.136-.352-.3-.883-.343-1.856-.047-1.055-.059-1.372-.059-4.04 0-2.669.012-2.99.059-4.04.043-.977.207-1.504.343-1.856a3.04 3.04 0 0 1 .75-1.149 3.104 3.104 0 0 1 1.15-.746c.35-.136.882-.3 1.855-.344 1.055-.046 1.372-.058 4.04-.058 2.672 0 2.989.011 4.04.058.977.043 1.504.207 1.856.344.433.16.828.414 1.148.746.332.325.586.715.747 1.15.136.35.3.882.343 1.855.047 1.055.059 1.371.059 4.04 0 2.668-.012 2.98-.059 4.036Z"></path>
      <path d="M22.037 16.864a5.139 5.139 0 1 0 5.138 5.138 5.139 5.139 0 0 0-5.138-5.138Zm0 8.47a3.333 3.333 0 1 1 .001-6.666 3.333 3.333 0 0 1 0 6.667ZM28.578 16.661a1.2 1.2 0 1 1-2.4 0 1.2 1.2 0 0 1 2.4 0Z"></path>
  
    </g>
    <defs>
      <clipPath id="a">
        <path fill="#fff" d="M12 12h20v20H12z"></path>
      </clipPath>
    </defs>
  </symbol>

<!-- twiter -->

  <symbol xmlns="http://www.w3.org/2000/svg" fill="none" viewBox="0 0 44 44" id="twiter-footer">
    <path fill="#2196F3" d="M44 22A22 22 0 0 1 6.4 37.6 22 22 0 0 1 22 0a22 22 0 0 1 22 22Z"></path>
    <g clip-path="url(#a)">
      <path fill="#fff" d="M32 15.8c-.7.3-1.5.5-2.4.6a4 4 0 0 0 1.8-2.2c-.8.5-1.6.8-2.6 1a4.1 4.1 0 0 0-7 3.7c-3.4-.2-6.4-1.8-8.4-4.3a4.1 4.1 0 0 0 1.3 5.5 4 4 0 0 1-1.9-.5c0 2 1.4 3.7 3.3 4a4 4 0 0 1-1.9.1c.6 1.7 2 2.9 3.9 2.9a8.2 8.2 0 0 1-6.1 1.7c1.8 1.2 4 1.8 6.3 1.8A11.6 11.6 0 0 0 29.9 18c.9-.5 1.5-1.3 2.1-2.1Z"></path>
    </g>
    <defs>
      <clipPath id="a">
        <path fill="#fff" d="M12 12h20v20H12z"></path>
      </clipPath>
    </defs>
  </symbol>

<!-- facebook -->

  <symbol fill="none" xmlns="http://www.w3.org/2000/svg" viewBox="0 0 44 44" id="facebook-footer">
    <path d="M44 22C44 28.0751 41.5376 33.5751 37.5564 37.5564C33.5751 41.5376 28.0751 44 22 44C15.9249 44 10.4249 41.5376 6.44365 37.5564C2.46243 33.5751 0 28.0751 0 22C0 15.9249 2.46243 10.4249 6.44365 6.44365C10.4249 2.46243 15.9249 0 22 0C28.0751 0 33.5751 2.46243 37.5564 6.44365C41.5376 10.4249 44 15.9249 44 22Z" fill="white" fill-opacity="0.1"></path>
    <g clip-path="url(#clip0_75273_784)">
      <path d="M25.3309 15.3208H27.1567V12.1408C26.8417 12.0975 25.7584 12 24.4967 12C21.8642 12 20.0609 13.6558 20.0609 16.6992V19.5H17.1559V23.055H20.0609V32H23.6226V23.0558H26.4101L26.8526 19.5008H23.6217V17.0517C23.6226 16.0242 23.8992 15.3208 25.3309 15.3208Z" fill="white"></path>
    </g>
    <defs>
      <clipPath id="clip0_75273_784">
        <rect width="20" height="20" fill="white" transform="translate(12 12)"></rect>
      </clipPath>
    </defs>
  </symbol>

  <!-- linkeding  -->

  <symbol xmlns="http://www.w3.org/2000/svg" fill="none" viewBox="0 0 44 44" id="linkedin-footer">
    <path fill="#fff" fill-opacity=".1" d="M44 22A22 22 0 0 1 6.4 37.6 22 22 0 0 1 22 0a22 22 0 0 1 22 22Z"></path>
    <g fill="#fff" clip-path="url(#a)">
      <path d="M32 32v-7.3c0-3.6-.8-6.4-5-6.4-2 0-3.3 1.1-3.9 2.2v-1.9h-4V32h4.1v-6.6c0-1.8.3-3.4 2.5-3.4 2.1 0 2.2 2 2.2 3.5V32H32ZM12.3 18.6h4.2V32h-4.2V18.6ZM14.4 12c-1.3 0-2.4 1-2.4 2.4 0 1.3 1 2.4 2.4 2.4a2.4 2.4 0 0 0 0-4.8Z"></path>
    </g>
    <defs>
      <clipPath id="a">
        <path fill="#fff" d="M12 12h20v20H12z"></path>
      </clipPath>
    </defs>
  </symbol>
   <!-- end foot img svg -->


  <symbol xmlns="http://www.w3.org/2000/svg" fill="none" viewBox="0 0 94 45" id="31">
    <path fill="#AFB1B8" d="M47.4 21.5a3 3 0 0 1-.6-2v-2.9c0-.9.2-1.5.6-2 .4-.5 1.1-.7 2-.7 1 0 1.7.2 2 .6.5.5.7 1.1.6 1.7v.7h-1.6V15.6c0-.2-.2-.3-.3-.4a1 1 0 0 0-.6-.2 1 1 0 0 0-.6.2c-.2 0-.3.2-.3.4v4.2l.1 1 .4.2c.1 0 .3.1.4 0h.6l.2-.5v-1.4H52v.6c0 .7-.1 1.3-.5 1.9-.4.4-1 .6-2 .6s-1.7-.2-2-.7ZM54.3 21.5c-.5-.4-.7-1-.7-2v-3c0-.8.2-1.5.7-2 .4-.4 1-.6 2-.6s1.7.2 2.1.7c.4.4.6 1 .6 2v3c0 .8-.2 1.5-.6 2-.4.4-1.1.6-2 .6-1 0-1.7-.2-2.1-.7Zm2.8-.7.2-.9v-3.7c0-.3 0-.6-.2-.9l-.3-.2a1 1 0 0 0-.5 0 1 1 0 0 0-.4 0l-.3.2c-.2.3-.3.6-.2.9v3.7c0 .3 0 .6.2 1l.3.1a1.2 1.2 0 0 0 .9 0s.2 0 .3-.2ZM61 14h1.8l1.3 5.6 1.4-5.6h1.7l.1 8h-1.2l-.2-5.5-1.3 5.6h-1l-1.3-5.6L62 22h-1.3l.2-8ZM69.3 14h2.8c1.6 0 2.4.8 2.4 2.3 0 1.5-.9 2.2-2.5 2.2h-1v3.6h-1.7v-8Zm2.4 3.5h.5l.4-.3.3-.9-.1-.7-.1-.3-.3-.1-.7-.2H71v2.5h.7ZM77 14h1.7l2 8H79l-.3-1.8H77l-.4 1.9H75l2-8Zm1.5 5.3-.7-3.4-.6 3.4h1.3ZM82.1 14h1.2l2.3 4.6V14H87v8h-1.1l-2.3-4.7V22H82v-8ZM90.3 19l-1.9-5H90l1.2 3.2 1-3.2h1.6l-1.9 5v3h-1.6v-3ZM50 25.6v.4h-1.3v3.3H48V26h-1.4v-.4H50ZM54.4 29.3h-.5l-.2-.1-.4-.9h-1.9l-.4.9v.1H50.4l1.7-3.7h.6l1.7 3.7ZM51.6 28h1.6l-.7-1.5-.1-.3v.2l-.1.1-.7 1.5ZM57.3 29h.3a2 2 0 0 0 .6-.2h.2v-.9H57.6v-.4h1.3V29a2.6 2.6 0 0 1-1.1.3h-1.4a2 2 0 0 1-.7-.5l-.4-.5-.2-.8c0-.3 0-.5.2-.8 0-.2.2-.4.4-.6l.7-.4a2.9 2.9 0 0 1 1.4 0 2.3 2.3 0 0 1 .7.2l.3.2-.1.2h-.4L58 26a2.1 2.1 0 0 0-.7 0 2 2 0 0 0-.7 0l-.5.3-.3.5V28c0 .2.2.4.4.5a1.5 1.5 0 0 0 1.1.4ZM62.7 28.9h1.9v.4h-2.4v-3.7h.5V29ZM66.5 29.3H66v-3.7h.6v3.7ZM68.7 25.6v.1l2.6 2.8V25.6h.5v3.7h-.5l-2.5-2.9V29.3h-.5v-3.7h.3ZM76 25.6v.4h-2v1.2h1.6v.4H74V29h2v.4h-2.6v-3.7H76ZM15.2 2.7 41 9.1v22.1L15.2 25V2.7ZM13.5 1v25l29.1 7.2V8L13.6.9Z"></path>
    <path fill="#AFB1B8" d="M29.1 44.8 0 37.6v-25l29.1 7v25.2Z"></path>
    <path fill="#AFB1B8" d="m14 2.5 25.4 6.2-10.8 9.4-25.4-6.3L14 2.5ZM13.5.9 0 12.5l29.1 7.2L42.6 8 13.6.9ZM30.7 43.4l12-10.3-12-2.9v13.2Z"></path>
  </symbol>

  <symbol xmlns="http://www.w3.org/2000/svg" xmlns:xlink="http://www.w3.org/1999/xlink" fill="none" viewBox="0 0 370 294" id="uno">
    <path fill="url(#a)" d="M0 0h370v294H0z"></path>
    <path fill="#2F303A" fill-opacity=".8" d="M0 224h370v70H0z"></path>
    <path fill="#fff" d="M85.7 262h-3.6l-.7 2h-2.2l3.7-10h2l3.7 10h-2.2l-.7-2Zm-3-1.7H85l-1.2-3.7-1.2 3.7Zm9.3.2v3.5h-2v-10h3.8c.8 0 1.4.2 2 .5.5.2 1 .6 1.3 1.1.3.5.4 1.1.4 1.7 0 1-.3 1.8-1 2.4-.6.5-1.5.8-2.7.8H92Zm0-1.7h1.8c.5 0 1-.1 1.2-.4.3-.2.5-.6.5-1 0-.5-.2-1-.5-1.2-.2-.3-.6-.5-1.1-.5h-2v3.1Zm9.4 3.6h4.4v1.6h-6.4v-10h2v8.4Zm8.2 1.6h-2v-10h2v10Zm10.1-3.3c0 1-.5 1.9-1.2 2.5-.7.6-1.6 1-2.8 1-1.3 0-2.3-.5-3-1.3-.7-1-1.1-2-1.1-3.6v-.6c0-1 .2-1.8.5-2.5a3.8 3.8 0 0 1 3.6-2.3 4 4 0 0 1 2.8 1c.7.5 1.1 1.4 1.2 2.5h-2c0-.6-.3-1-.6-1.4-.3-.3-.7-.4-1.4-.4s-1.2.2-1.5.7c-.3.5-.5 1.3-.5 2.3v.8c0 1 .1 1.8.5 2.3.3.5.8.8 1.5.8.6 0 1.1-.2 1.4-.5.3-.3.5-.7.6-1.3h2Zm7.4 1.2h-3.6l-.7 2.1h-2.2l3.7-10h2l3.7 10h-2.2l-.7-2Zm-3-1.6h2.4l-1.2-3.7-1.2 3.7Zm14.9.4c-.1 1-.5 1.9-1.2 2.5-.7.6-1.7 1-2.8 1-1.3 0-2.3-.5-3-1.3-.8-1-1.1-2-1.1-3.6v-.6c0-1 .1-1.8.5-2.5a3.8 3.8 0 0 1 3.6-2.3 4 4 0 0 1 2.8 1c.7.5 1 1.4 1.2 2.5h-2c-.1-.6-.3-1-.6-1.4-.3-.3-.8-.4-1.4-.4-.7 0-1.2.2-1.5.7-.4.5-.5 1.3-.6 2.3v.8c0 1 .2 1.8.5 2.3.4.5.9.8 1.6.8.6 0 1-.2 1.4-.5.3-.3.5-.7.5-1.3h2Zm4 3.3h-2.1v-10h2v10Zm10.4-4.8a6 6 0 0 1-.5 2.6 4 4 0 0 1-3.7 2.3 4 4 0 0 1-3.7-2.3c-.4-.7-.5-1.5-.5-2.5v-.5c0-1 .1-1.8.5-2.6a4 4 0 0 1 3.7-2.3 3.9 3.9 0 0 1 3.7 2.3c.4.8.5 1.6.5 2.6v.4Zm-2-.4c0-1-.2-1.8-.6-2.4-.4-.5-1-.8-1.6-.8-.7 0-1.2.3-1.6.8-.4.5-.6 1.3-.6 2.4v.4c0 1 .2 1.9.6 2.4.4.6.9.9 1.6.9.7 0 1.2-.3 1.6-.9.4-.5.5-1.3.5-2.3v-.5Zm12 5.2h-2l-4-6.5v6.5h-2v-10h2l4 6.6V254h2v10Zm8.2-4.3h-4v2.7h4.7v1.6h-6.7v-10h6.7v1.7h-4.6v2.4h4v1.6Zm7.5 1.7a1 1 0 0 0-.4-.9l-1.5-.7-1.7-.6c-1.1-.7-1.7-1.5-1.7-2.5 0-.5.2-1 .5-1.4a3 3 0 0 1 1.3-1 5 5 0 0 1 1.9-.4c.7 0 1.3.1 1.9.4.6.3 1 .6 1.3 1 .3.6.5 1 .5 1.7h-2c0-.5-.2-.8-.5-1-.3-.3-.7-.5-1.2-.5s-1 .2-1.2.4a1 1 0 0 0-.4.8c0 .3.1.6.5.8l1.4.6c1.2.4 2 .8 2.6 1.3.5.6.8 1.2.8 2s-.4 1.5-1 2c-.7.5-1.5.7-2.7.7-.7 0-1.4-.1-2-.4-.7-.3-1.2-.6-1.5-1.1a3 3 0 0 1-.5-1.7h2c0 1 .7 1.6 2 1.6a2 2 0 0 0 1.2-.3c.3-.2.4-.5.4-.8Zm7.8 2.6v-10h3c1 0 1.7.2 2.4.6a4 4 0 0 1 1.6 1.7c.4.7.6 1.6.6 2.5v.5c0 .9-.2 1.7-.6 2.4a4 4 0 0 1-1.6 1.7c-.7.4-1.5.6-2.3.6h-3.1Zm2-8.3v6.7h1c.8 0 1.4-.3 1.9-.8.4-.6.6-1.3.6-2.3v-.5c0-1-.2-1.8-.6-2.3-.4-.5-1-.8-1.9-.8h-1Zm13.5 4h-4v2.7h4.7v1.6h-6.7v-10h6.7v1.7h-4.6v2.4h3.9v1.6Zm12.2 0h-4v2.7h4.7v1.6h-6.7v-10h6.7v1.7h-4.6v2.4h3.9v1.6Zm7.5 1.7a1 1 0 0 0-.4-.9l-1.5-.7-1.7-.6c-1.1-.7-1.7-1.5-1.7-2.5 0-.5.1-1 .4-1.4a3 3 0 0 1 1.3-1 5 5 0 0 1 2-.4c.7 0 1.3.1 1.9.4.5.3 1 .6 1.3 1 .3.6.4 1 .4 1.7h-2c0-.5-.2-.8-.5-1-.3-.3-.7-.5-1.2-.5s-.9.2-1.1.4a1 1 0 0 0-.5.8c0 .3.2.6.5.8l1.5.6c1.1.4 2 .8 2.5 1.3.6.6.8 1.2.8 2s-.3 1.5-1 2c-.6.5-1.5.7-2.6.7-.8 0-1.5-.1-2-.4-.7-.3-1.2-.6-1.5-1.1a3 3 0 0 1-.5-1.7h2c0 1 .7 1.6 2 1.6a2 2 0 0 0 1.2-.3c.2-.2.4-.5.4-.8Zm11.6-.7c0 1-.4 1.9-1.1 2.5-.8.6-1.7 1-2.9 1s-2.2-.5-3-1.3c-.7-1-1-2-1-3.6v-.6c0-1 .1-1.8.4-2.5a3.8 3.8 0 0 1 3.7-2.3 4 4 0 0 1 2.7 1c.7.5 1.2 1.4 1.3 2.5h-2c-.1-.6-.3-1-.6-1.4-.3-.3-.8-.4-1.4-.4-.7 0-1.2.2-1.6.7-.3.5-.5 1.3-.5 2.3v.8c0 1 .2 1.8.5 2.3.3.5.8.8 1.5.8s1.1-.2 1.5-.5c.3-.3.5-.7.5-1.3h2Zm5.5-.3h-1.6v3.6h-2v-10h3.6c1.2 0 2 .3 2.7.8.7.6 1 1.3 1 2.3a3 3 0 0 1-.5 1.7 3 3 0 0 1-1.3 1l2.2 4.1v.1H241l-1.9-3.6Zm-1.6-1.7h1.6c.5 0 1-.1 1.2-.4.3-.3.4-.6.4-1 0-.6-.1-1-.4-1.2-.2-.3-.6-.4-1.2-.4h-1.6v3Zm9.5 5.3H245v-10h2v10Zm9.6-8.3h-3v8.3h-2.1v-8.3h-3V254h8v1.7Zm9.6 3.5a6 6 0 0 1-.6 2.6 3.9 3.9 0 0 1-3.7 2.3 4 4 0 0 1-3.7-2.3c-.3-.7-.5-1.5-.5-2.5v-.5c0-1 .1-1.8.5-2.6a4 4 0 0 1 3.7-2.3 4 4 0 0 1 2.2.6c.7.4 1.2 1 1.5 1.7.4.8.6 1.6.6 2.6v.4Zm-2.1-.4c0-1-.2-1.8-.6-2.4-.4-.5-.9-.8-1.6-.8-.7 0-1.2.3-1.6.8-.4.5-.5 1.3-.5 2.4v.4c0 1 .1 1.9.5 2.4.4.6 1 .9 1.6.9.7 0 1.2-.3 1.6-.9.4-.5.6-1.3.6-2.3v-.5Zm7.6 1.6h-1.6v3.6h-2v-10h3.7c1.1 0 2 .3 2.7.8.6.6 1 1.3 1 2.3a3 3 0 0 1-.5 1.7 3 3 0 0 1-1.3 1l2.1 4.1v.1h-2.2l-1.9-3.6Zm-1.6-1.7h1.7c.5 0 .9-.1 1.2-.4.2-.3.4-.6.4-1 0-.6-.1-1-.4-1.2-.3-.3-.7-.4-1.2-.4h-1.7v3Zm9.5 5.3h-2v-10h2v10Zm10.5-4.8a6 6 0 0 1-.5 2.6 4 4 0 0 1-3.7 2.3 4 4 0 0 1-3.7-2.3c-.4-.7-.6-1.5-.6-2.5v-.5c0-1 .2-1.8.6-2.6a4 4 0 0 1 3.7-2.3 3.9 3.9 0 0 1 3.7 2.3c.3.8.5 1.6.5 2.6v.4Zm-2-.4c0-1-.3-1.8-.6-2.4-.4-.5-1-.8-1.6-.8-.7 0-1.3.3-1.6.8-.4.5-.6 1.3-.6 2.4v.4c0 1 .2 1.9.6 2.4.3.6.9.9 1.6.9.7 0 1.2-.3 1.6-.9.3-.5.5-1.3.5-2.3v-.5Z"></path>
    <defs>
      <pattern id="a" width="1" height="1" patternContentUnits="objectBoundingBox">
        <use xlink:href="#b" transform="matrix(0 0 0 0 -.1 0)"></use>
      </pattern>
     
    </defs>
  </symbol>


  
 
</svg>


